<svg width="568" height="367" viewBox="0 0 568 367" fill="none" xmlns="http://www.w3.org/2000/svg">
<path d="M361.075 159.064C353.033 151.606 341.407 148.187 330.602 148.187H282.377C277.626 148.187 273.405 144.612 273.405 140.199C273.409 138.437 273.994 136.726 275.071 135.331C276.148 133.936 277.655 132.935 279.359 132.485C279.359 132.485 280.17 132.276 281.064 131.993C289.846 136.059 299.425 138.112 309.102 138.002C323.955 138.002 338.845 133.634 349.75 123.413C360.364 113.502 365.324 99.6239 365.324 85.427C365.324 71.2302 360.364 57.3617 349.75 47.4412C346.659 44.5746 343.215 42.1141 339.502 40.1194C349.732 42.4901 360.291 39.5541 367.558 27.0168L347.088 12.2911L330.01 36.0619C323.246 33.9339 316.192 32.8726 309.102 32.9162C294.24 32.9162 279.35 37.2746 268.454 47.5051C257.831 57.4255 252.88 71.2941 252.88 85.4909C252.88 99.6877 257.831 113.556 268.454 123.477C269.366 124.388 270.323 125.164 271.308 125.939L269.311 126.996C264.322 129.866 259.791 133.468 255.871 137.683C249.142 144.84 242.413 155.572 242.413 169.851C242.413 169.851 241.501 200.305 276.459 200.305H301.808C307.643 200.305 313.579 204.016 313.579 209.843C313.584 211.879 312.995 213.872 311.883 215.578H360.345C367.652 207.25 371.584 196.493 371.369 185.416C371.05 175.878 368.223 165.748 361.075 159.064ZM300.577 76.0902C302.665 73.7612 305.503 72.2371 308.598 71.7825C311.692 71.328 314.849 71.9717 317.518 73.6018C320.188 75.232 322.203 77.7457 323.212 80.7065C324.221 83.6672 324.162 86.8879 323.044 89.8094C321.926 92.7309 319.82 95.1686 317.092 96.6992C314.364 98.2298 311.186 98.7566 308.11 98.1882C305.034 97.6198 302.255 95.992 300.254 93.5876C298.253 91.1832 297.157 88.1539 297.157 85.0258C297.102 83.3847 297.371 81.7487 297.95 80.212C298.529 78.6753 299.406 77.2683 300.531 76.0719L300.577 76.0902Z" fill="#E57CD8"/>
<path d="M499.013 159.064C490.98 151.606 479.345 148.187 468.54 148.187L412.619 147.776C409.091 147.776 406.401 145.561 406.401 142.305C406.401 139.57 407.741 135.595 411.115 134.929C417.803 137.01 424.772 138.05 431.776 138.011C446.63 138.011 461.528 133.643 472.425 123.422C483.038 113.511 487.998 99.633 487.998 85.4362C487.998 71.2393 483.038 57.3708 472.425 47.4504C469.327 44.5766 465.874 42.1127 462.148 40.1194C472.379 42.4901 482.938 39.5541 490.214 27.0168L469.744 12.2911L452.657 36.0619C445.902 33.936 438.857 32.8747 431.776 32.9162C416.923 32.9162 402.033 37.2746 391.128 47.5051C380.515 57.4255 375.554 71.2941 375.554 85.4909C375.554 99.6877 380.515 113.556 391.128 123.477C394.239 126.378 397.711 128.867 401.459 130.881C398.757 132.937 396.229 135.212 393.9 137.683C387.162 144.84 380.433 155.572 380.433 169.851C380.433 169.851 379.521 200.305 414.479 200.305H439.818C445.654 200.305 451.59 204.016 451.59 209.843C451.593 211.877 451.007 213.869 449.903 215.578H498.365C505.678 207.253 509.614 196.494 509.398 185.416C509.033 175.878 506.216 165.748 499.013 159.064ZM423.524 76.0902C425.612 73.7705 428.446 72.2548 431.534 71.8062C434.622 71.3576 437.77 72.0044 440.431 73.6343C443.092 75.2641 445.098 77.7743 446.102 80.7291C447.106 83.6839 447.043 86.8969 445.926 89.8104C444.808 92.7239 442.705 95.1541 439.983 96.6793C437.26 98.2045 434.089 98.7283 431.021 98.1599C427.953 97.5915 425.18 95.9668 423.184 93.5677C421.189 91.1686 420.096 88.1465 420.096 85.0258C420.046 83.3807 420.323 81.742 420.912 80.2049C421.501 78.6679 422.389 77.263 423.524 76.0719V76.0902Z" fill="#E57CD8"/>
<path d="M553.931 111.012V0H502.159V119.31C502.159 134.127 504.365 146.482 509.708 154.259C517.915 166.113 529.029 173.836 551.123 173.927C555.207 173.754 562.009 172.942 568 169.824V124.361C557.56 125.683 553.931 118.325 553.931 111.012Z" fill="#E57CD8"/>
<path d="M175.067 173.927C193.303 173.927 211.539 168.091 224.906 154.451C237.917 141.166 243.999 122.592 243.999 103.599C243.999 84.6064 237.917 66.0238 224.906 52.7388C211.539 39.0982 193.303 33.2627 175.067 33.2627C156.83 33.2627 138.594 39.1073 125.218 52.7388C112.152 66.0238 106.107 84.5882 106.107 103.599C106.107 122.61 112.189 141.166 125.2 154.451C138.594 168.082 156.83 173.927 175.067 173.927ZM163.213 91.445C165.907 88.4401 169.568 86.473 173.56 85.8848C177.553 85.2966 181.625 86.1244 185.071 88.2247C188.517 90.325 191.119 93.5652 192.426 97.3833C193.733 101.201 193.662 105.357 192.226 109.128C190.79 112.899 188.079 116.049 184.564 118.031C181.048 120.013 176.95 120.701 172.98 119.977C169.009 119.254 165.418 117.163 162.828 114.068C160.238 110.973 158.813 107.07 158.8 103.034C158.731 100.906 159.085 98.7858 159.843 96.7962C160.6 94.8067 161.746 92.9876 163.213 91.445Z" fill="#E57CD8"/>
<path d="M19.3941 120.358C19.3941 135.148 22.0657 146.545 27.3997 154.305C35.606 166.158 44.7696 173.936 67.0724 173.936C80.0018 173.936 90.8249 170.964 97.9279 167.006V122.802C94.5613 124.003 91.0071 124.593 87.433 124.544C78.8256 124.544 75.2969 121.899 72.1147 117.86C70.054 115.216 69.0237 111.341 69.0237 106.307V82.7737H97.9279V40.5936H69.0237V0H32.0955V15.1724C32.0955 31.9861 19.2847 45.5903 3.4831 45.5903C2.31879 45.5942 1.15542 45.5242 0 45.3806L0 82.7646H19.3941V120.358Z" fill="#E57CD8"/>
<path d="M54.1704 352.622C47.8546 352.622 43.4931 351.154 41.0859 348.218C38.6788 345.282 37.463 340.805 37.4387 334.788V263.667H70.209V251.503H37.4752V221.25H23.7069V251.503H0V263.685H23.7069V334.113C23.7069 345.699 26.1901 353.826 31.1564 358.495C36.1227 363.163 43.5721 365.494 53.5047 365.488C56.4866 365.503 59.466 365.314 62.4222 364.923C65.2745 364.534 68.1003 363.97 70.8837 363.236V351.045C68.3307 351.492 65.7685 351.875 63.2155 352.176C60.2115 352.498 57.1915 352.647 54.1704 352.622Z" fill="#E57CD8"/>
<path d="M117.358 254.676C111.341 259.345 106.827 266.493 103.818 276.122V250.391H90.4967V363.254H104.265V311.108C104.237 304.687 104.805 298.277 105.961 291.96C106.896 286.457 108.847 281.176 111.714 276.386C114.36 272.079 118.047 268.507 122.437 266.001C126.881 263.442 132.409 262.162 139.023 262.162C140.847 262.162 142.67 262.235 144.448 262.39C146.42 262.565 148.379 262.869 150.311 263.302V248.804C146.664 248.112 142.963 247.737 139.251 247.683C130.68 247.683 123.382 250.014 117.358 254.676Z" fill="#E57CD8"/>
<path d="M206.98 247.683C200.825 247.577 194.681 248.257 188.698 249.707C184.035 250.861 179.605 252.81 175.605 255.47C172.185 257.755 169.266 260.711 167.024 264.159C164.932 267.442 163.335 271.015 162.283 274.763L174.474 281.31C177.513 267.171 188.573 260.099 207.655 260.092C218.183 260.092 225.781 262.311 230.45 266.749C235.118 271.186 237.449 277.244 237.443 284.921V288.988C237.443 291.699 235.562 293.279 231.799 293.729L194.333 297.376C183.92 298.404 175.298 301.704 168.465 307.278C161.633 312.853 158.21 320.901 158.198 331.423C158.161 336.053 159.003 340.647 160.678 344.963C162.261 349.063 164.726 352.765 167.9 355.805C171.316 358.969 175.352 361.388 179.753 362.908C185.029 364.731 190.585 365.61 196.166 365.506C205.636 365.506 214.025 363.248 221.332 358.732C228.706 354.121 234.373 347.228 237.471 339.1V363.254H251.239V289.216C251.239 275.362 247.628 264.977 240.407 258.059C233.185 251.142 222.043 247.683 206.98 247.683ZM237.452 314.947C237.443 319.657 236.562 324.325 234.854 328.715C233.132 333.212 230.524 337.317 227.185 340.787C223.645 344.43 219.426 347.345 214.767 349.367C209.456 351.633 203.726 352.748 197.953 352.641C189.674 352.641 183.391 350.723 179.106 346.887C174.82 343.052 172.675 337.885 172.669 331.387C172.626 326.237 174.565 321.268 178.085 317.509C181.695 313.515 187.789 311.068 196.366 310.169L237.452 305.655V314.947Z" fill="#E57CD8"/>
<path d="M343.249 349.139C337.636 351.497 331.602 352.689 325.514 352.641C319.489 352.694 313.511 351.583 307.908 349.367C302.652 347.284 297.889 344.129 293.92 340.103C289.92 335.967 286.816 331.051 284.802 325.66C282.555 319.635 281.445 313.244 281.529 306.813C281.451 300.344 282.56 293.916 284.802 287.848C286.781 282.44 289.889 277.516 293.92 273.405C297.92 269.448 302.681 266.346 307.917 264.287C313.595 262.057 319.651 260.946 325.752 261.013C331.519 260.965 337.237 262.079 342.565 264.287C347.821 266.499 352.667 269.582 356.899 273.405L365.707 262.6C360.749 257.794 354.877 254.033 348.437 251.54C341.404 248.9 333.938 247.602 326.426 247.71C318.131 247.6 309.893 249.093 302.163 252.105C295.112 254.879 288.727 259.111 283.426 264.524C278.2 269.929 274.129 276.341 271.463 283.371C268.616 290.947 267.201 298.985 267.287 307.078C267.202 315.161 268.579 323.192 271.353 330.785C273.9 337.753 277.9 344.1 283.088 349.404C288.357 354.694 294.657 358.844 301.598 361.595C309.287 364.618 317.491 366.114 325.752 365.999C333.712 366.143 341.619 364.683 349.003 361.704C355.407 359.08 361.292 355.334 366.382 350.644L358.029 339.812C353.653 343.718 348.659 346.87 343.249 349.139Z" fill="#E57CD8"/>
<path d="M396.626 329.618V363.254H382.858V214.621H396.626V312.011L455.994 250.391H475.406L426.424 299.592L476.537 363.254H458.474L417.169 309.075L396.626 329.618Z" fill="#E57CD8"/>
</svg>
